<svg width="32" height="32" viewBox="0 0 32 32" fill="none" xmlns="http://www.w3.org/2000/svg">
<path d="M27 0H5C2.23858 0 0 2.23858 0 5V27C0 29.7614 2.23858 32 5 32H27C29.7614 32 32 29.7614 32 27V5C32 2.23858 29.7614 0 27 0Z" fill="#E60023"/>
<path d="M23.5 8.5H8.5C8.16848 8.5 7.85054 8.65804 7.61612 8.93934C7.3817 9.22064 7.25 9.60218 7.25 10V22C7.25 22.3978 7.3817 22.7794 7.61612 23.0607C7.85054 23.342 8.16848 23.5 8.5 23.5H23.5C23.8315 23.5 24.1495 23.342 24.3839 23.0607C24.6183 22.7794 24.75 22.3978 24.75 22V10C24.75 9.60218 24.6183 9.22064 24.3839 8.93934C24.1495 8.65804 23.8315 8.5 23.5 8.5ZM22.125 10L16 15.085L9.875 10H22.125ZM8.5 22V10.6825L15.6438 16.615C15.7484 16.7021 15.8727 16.7488 16 16.7488C16.1273 16.7488 16.2516 16.7021 16.3562 16.615L23.5 10.6825V22H8.5Z" fill="white"/>
</svg>
