<svg width="32" height="32" viewBox="0 0 32 32" fill="none" xmlns="http://www.w3.org/2000/svg">
<path d="M27 0H5C2.23858 0 0 2.23858 0 5V27C0 29.7614 2.23858 32 5 32H27C29.7614 32 32 29.7614 32 27V5C32 2.23858 29.7614 0 27 0Z" fill="#F00073"/>
<path d="M9.75 9.188V20.875C9.75 21.7701 10.1056 22.6286 10.7385 23.2615C11.3714 23.8944 12.2299 24.25 13.125 24.25H20.812C20.6436 24.6226 20.3713 24.9387 20.0277 25.1604C19.6841 25.3821 19.2839 25.5 18.875 25.5H13.125C11.8984 25.5 10.722 25.0127 9.85463 24.1454C8.98728 23.278 8.5 22.1016 8.5 20.875V11.125C8.4999 10.7161 8.61778 10.3158 8.83951 9.97226C9.06123 9.62868 9.37737 9.35637 9.75 9.188ZM16.8785 6.5C17.1576 6.49996 17.434 6.55492 17.6919 6.66173C17.9498 6.76854 18.1841 6.92511 18.3815 7.1225L22.8775 11.6185C23.0749 11.8159 23.2315 12.0502 23.3383 12.3081C23.4451 12.566 23.5 12.8424 23.5 13.1215V20.875C23.5 21.4386 23.2761 21.9791 22.8776 22.3776C22.4791 22.7761 21.9386 23 21.375 23H13.125C12.5614 23 12.0209 22.7761 11.6224 22.3776C11.2239 21.9791 11 21.4386 11 20.875V8.625C11 8.06141 11.2239 7.52091 11.6224 7.1224C12.0209 6.72388 12.5614 6.5 13.125 6.5H16.8785V6.5ZM16.5 7.75H13.125C12.8929 7.75 12.6704 7.84219 12.5063 8.00628C12.3422 8.17038 12.25 8.39294 12.25 8.625V20.875C12.25 21.3585 12.642 21.75 13.125 21.75H21.375C21.6071 21.75 21.8296 21.6578 21.9937 21.4937C22.1578 21.3296 22.25 21.1071 22.25 20.875V13.5H18.625C18.0792 13.5 17.5544 13.29 17.1593 12.9136C16.7641 12.5371 16.529 12.0231 16.5025 11.478L16.5 11.375V7.75ZM21.741 12.25L17.75 8.259V11.375C17.75 11.5947 17.8327 11.8063 17.9815 11.9679C18.1304 12.1294 18.3346 12.229 18.5535 12.247L18.625 12.25H21.741Z" fill="white"/>
</svg>
