<svg width="32" height="32" viewBox="0 0 32 32" fill="none" xmlns="http://www.w3.org/2000/svg">
<path d="M16 31C24.2843 31 31 24.2843 31 16C31 7.71573 24.2843 1 16 1C7.71573 1 1 7.71573 1 16C1 24.2843 7.71573 31 16 31Z" fill="#ED4C5C"/>
<path d="M11 14.2L15 17L13.5 12.4L17.5 9.5H12.55L11 5L9.5 9.5H4.5L8.5 12.4L7 17L11 14.2ZM17.65 17.65L16.5 17.9L17.6 18.35V19.5L18.35 18.65L19.45 19.05L18.8 18.1L19.5 17.2L18.35 17.45L17.65 16.5V17.65ZM19.35 14.25L18.5 15L19.65 14.9L20.15 16L20.35 14.85L21.5 14.75L20.5 14.15L20.75 13L19.9 13.75L18.9 13.15L19.35 14.25ZM19.65 10.35L20 11.5L20.35 10.4H21.5L20.6 9.7L20.95 8.55L20 9.25L19.1 8.5L19.45 9.65L18.5 10.3L19.65 10.35ZM17.65 6.35V7.5L18.35 6.55L19.5 6.8L18.8 5.9L19.45 4.95L18.35 5.4L17.6 4.5V5.65L16.5 6.1L17.65 6.35Z" fill="#FFE62E"/>
</svg>
