<svg width="24" height="24" viewBox="0 0 24 24" fill="none" xmlns="http://www.w3.org/2000/svg">
<path d="M21.3333 0H2.66667C1.95942 0 1.28115 0.280951 0.781048 0.781048C0.280951 1.28115 0 1.95942 0 2.66667V21.3333C0 22.0406 0.280951 22.7189 0.781048 23.219C1.28115 23.719 1.95942 24 2.66667 24H21.3333C22.0406 24 22.7189 23.719 23.219 23.219C23.719 22.7189 24 22.0406 24 21.3333V2.66667C24 1.95942 23.719 1.28115 23.219 0.781048C22.7189 0.280951 22.0406 0 21.3333 0ZM16.8 18.6667L12 13.8667L7.2 18.6667L5.33333 16.8L10.1333 12L5.33333 7.2L7.2 5.33333L12 10.1333L16.8 5.33333L18.6667 7.2L13.8667 12L18.6667 16.8L16.8 18.6667Z" fill="white"/>
</svg>
