<svg width="34" height="34" viewBox="0 0 34 34" fill="none" xmlns="http://www.w3.org/2000/svg">
<path fill-rule="evenodd" clip-rule="evenodd" d="M16.665 33.33C25.8688 33.33 33.33 25.8688 33.33 16.665C33.33 7.46117 25.8688 0 16.665 0C7.46117 0 0 7.46117 0 16.665C0 25.8688 7.46117 33.33 16.665 33.33ZM19.6512 9.00004C21.0571 9.24373 22.4067 9.66549 23.6533 10.2466C23.672 10.2466 23.6814 10.256 23.6908 10.2653C25.9121 13.5364 27.0087 17.2198 26.5963 21.4655C26.5963 21.4843 26.5869 21.503 26.5682 21.5124C24.8811 22.7496 23.2596 23.4994 21.6476 23.9961C21.6195 24.0055 21.5913 23.9961 21.5632 23.9867C21.1977 23.4713 20.8603 22.9276 20.5604 22.3559C20.551 22.3278 20.5604 22.2809 20.5978 22.2716C21.1321 22.0654 21.6476 21.8311 22.1349 21.5405C22.1818 21.5218 22.1818 21.4655 22.1443 21.4374C22.0928 21.3952 22.0412 21.3554 21.9897 21.3156C21.9381 21.2757 21.8866 21.2359 21.835 21.1937C21.8163 21.175 21.7882 21.175 21.7694 21.1844C18.5827 22.6558 15.1055 22.6558 11.8814 21.1844C11.8626 21.175 11.8345 21.175 11.8158 21.1937C11.7642 21.2312 11.7127 21.271 11.6611 21.3109C11.6096 21.3507 11.558 21.3905 11.5065 21.428C11.4784 21.4562 11.4784 21.5124 11.5158 21.5311C12.0126 21.8123 12.5187 22.056 13.0529 22.2622C13.0904 22.2716 13.1092 22.3091 13.0904 22.3465C12.7999 22.9183 12.4625 23.4619 12.0876 23.9774C12.0782 23.9961 12.0501 24.0055 12.022 23.9961C10.4193 23.4994 8.79781 22.7496 7.11075 21.5124C7.092 21.503 7.08263 21.4843 7.08263 21.4655C6.73585 17.7915 7.43879 14.08 9.98812 10.2653C9.99749 10.256 10.0069 10.2466 10.0162 10.2466C11.2722 9.66549 12.6124 9.24373 14.0183 9.00004C14.0464 9.00004 14.0746 9.00942 14.0839 9.02816C14.262 9.33745 14.4588 9.7311 14.59 10.0498C16.0812 9.82483 17.5977 9.82483 19.0889 10.0498C19.2201 9.74047 19.4169 9.33745 19.5856 9.02816C19.5938 9.01896 19.604 9.01168 19.6153 9.00682C19.6266 9.00196 19.6389 8.99965 19.6512 9.00004ZM11.8064 17.2385C11.8064 18.3351 12.6124 19.2255 13.5778 19.2255C14.5619 19.2255 15.3492 18.3351 15.3492 17.2385C15.3586 16.1513 14.5713 15.2515 13.5778 15.2515C12.5937 15.2515 11.8064 16.1419 11.8064 17.2385ZM18.3391 17.2385C18.3391 18.3351 19.1451 19.2255 20.1105 19.2255C21.104 19.2255 21.8819 18.3351 21.8819 17.2385C21.8913 16.1513 21.104 15.2515 20.1105 15.2515C19.1264 15.2515 18.3391 16.1419 18.3391 17.2385Z" fill="white"/>
</svg>
