<svg width="34" height="48" viewBox="0 0 34 48" fill="none" xmlns="http://www.w3.org/2000/svg">
<path fill-rule="evenodd" clip-rule="evenodd" d="M31.5112 42.5122C31.5114 42.5122 31.5107 42.515 31.5084 42.5205C31.5098 42.5149 31.511 42.5121 31.5112 42.5122ZM31.4611 42.6C31.4007 42.5152 31.2725 42.3702 31.0092 42.17C30.4218 41.7236 29.4392 41.2316 28.0368 40.7808C25.2556 39.8869 21.2825 39.3 16.8 39.3C12.3175 39.3 8.34435 39.8869 5.56323 40.7808C4.1608 41.2316 3.17824 41.7236 2.59084 42.17C2.32749 42.3702 2.19928 42.5152 2.13893 42.6C2.19928 42.6848 2.32749 42.8298 2.59084 43.0299C3.17824 43.4763 4.1608 43.9683 5.56323 44.4191C8.34435 45.313 12.3175 45.9 16.8 45.9C21.2825 45.9 25.2556 45.313 28.0368 44.4191C29.4392 43.9683 30.4218 43.4763 31.0092 43.0299C31.2725 42.8298 31.4007 42.6848 31.4611 42.6ZM2.0888 42.5122C2.089 42.5121 2.09016 42.5149 2.09166 42.5205C2.08934 42.515 2.0886 42.5122 2.0888 42.5122ZM2.0888 42.6878C2.0886 42.6878 2.08934 42.685 2.09166 42.6794C2.09016 42.685 2.089 42.6878 2.0888 42.6878ZM31.5084 42.6795C31.5107 42.685 31.5114 42.6878 31.5112 42.6878C31.511 42.6878 31.5098 42.685 31.5084 42.6795ZM16.8 48C26.0784 48 33.6 45.5823 33.6 42.6C33.6 39.6176 26.0784 37.2 16.8 37.2C7.52162 37.2 0 39.6176 0 42.6C0 45.5823 7.52162 48 16.8 48Z" fill="url(#paint0_linear_149_807)"/>
<path d="M16.5177 30.7038L29.749 23.5722L16.5177 43.2L3.34902 23.5722L16.5177 30.7038Z" fill="url(#paint1_linear_149_807)"/>
<path d="M3.34902 19.5646L16.5177 12.4645L29.749 19.5962L16.5177 -2.59459e-05L3.34902 19.5646Z" fill="url(#paint2_linear_149_807)"/>
<defs>
<linearGradient id="paint0_linear_149_807" x1="16.8" y1="37.2" x2="16.8" y2="48" gradientUnits="userSpaceOnUse">
<stop stop-color="#1B1B1B" stop-opacity="0.5"/>
<stop offset="1" stop-color="#53EB45"/>
</linearGradient>
<linearGradient id="paint1_linear_149_807" x1="16.549" y1="43.2" x2="16.941" y2="-7.05887" gradientUnits="userSpaceOnUse">
<stop stop-color="#53EB45"/>
<stop offset="1" stop-color="#133706"/>
</linearGradient>
<linearGradient id="paint2_linear_149_807" x1="16.549" y1="43.2" x2="16.941" y2="-7.05887" gradientUnits="userSpaceOnUse">
<stop stop-color="#53EB45"/>
<stop offset="1" stop-color="#133706"/>
</linearGradient>
</defs>
</svg>
