<svg width="241" height="48" viewBox="0 0 241 48" fill="none" xmlns="http://www.w3.org/2000/svg">
<path fill-rule="evenodd" clip-rule="evenodd" d="M31.5112 42.5122C31.5114 42.5122 31.5107 42.515 31.5084 42.5205C31.5098 42.5149 31.511 42.5121 31.5112 42.5122ZM31.4611 42.6C31.4007 42.5152 31.2725 42.3702 31.0092 42.17C30.4218 41.7236 29.4392 41.2316 28.0368 40.7808C25.2556 39.8869 21.2826 39.3 16.8 39.3C12.3175 39.3 8.34435 39.8869 5.56323 40.7808C4.1608 41.2316 3.17824 41.7236 2.59084 42.17C2.32749 42.3702 2.19928 42.5152 2.13893 42.6C2.19928 42.6848 2.32749 42.8298 2.59084 43.0299C3.17824 43.4763 4.1608 43.9683 5.56323 44.4191C8.34435 45.313 12.3175 45.9 16.8 45.9C21.2826 45.9 25.2556 45.313 28.0368 44.4191C29.4392 43.9683 30.4218 43.4763 31.0092 43.0299C31.2725 42.8298 31.4007 42.6848 31.4611 42.6ZM2.0888 42.5122C2.089 42.5121 2.09016 42.5149 2.09166 42.5205C2.08934 42.515 2.0886 42.5122 2.0888 42.5122ZM2.0888 42.6878C2.0886 42.6878 2.08934 42.685 2.09166 42.6794C2.09016 42.685 2.089 42.6878 2.0888 42.6878ZM31.5084 42.6795C31.5107 42.685 31.5114 42.6878 31.5112 42.6878C31.511 42.6878 31.5098 42.685 31.5084 42.6795ZM16.8 48C26.0784 48 33.6 45.5823 33.6 42.6C33.6 39.6176 26.0784 37.2 16.8 37.2C7.52162 37.2 0 39.6176 0 42.6C0 45.5823 7.52162 48 16.8 48Z" fill="url(#paint0_linear_149_806)"/>
<path d="M16.5177 30.7038L29.749 23.5722L16.5177 43.2L3.34902 23.5722L16.5177 30.7038Z" fill="url(#paint1_linear_149_806)"/>
<path d="M3.34902 19.5646L16.5177 12.4645L29.749 19.5962L16.5177 -2.55462e-05L3.34902 19.5646Z" fill="url(#paint2_linear_149_806)"/>
<path d="M60.0246 33.6H50.1606V16.464H60.0246V19.44H53.7846V23.208H59.5926V26.184H53.7846V30.6H60.0246V33.6Z" fill="white"/>
<path d="M70.1903 33.6H66.5663V19.488H61.9103V16.464H74.8463V19.488H70.1903V33.6Z" fill="white"/>
<path d="M84.292 19.248C83.604 19.248 82.988 19.384 82.444 19.656C81.916 19.928 81.468 20.32 81.1 20.832C80.732 21.328 80.452 21.936 80.26 22.656C80.084 23.376 79.996 24.184 79.996 25.08C79.996 26.296 80.14 27.336 80.428 28.2C80.732 29.048 81.204 29.696 81.844 30.144C82.484 30.592 83.3 30.816 84.292 30.816C84.996 30.816 85.692 30.736 86.38 30.576C87.084 30.416 87.844 30.192 88.66 29.904V32.952C87.908 33.256 87.164 33.48 86.428 33.624C85.692 33.768 84.868 33.84 83.956 33.84C82.196 33.84 80.74 33.48 79.588 32.76C78.452 32.024 77.612 31 77.068 29.688C76.524 28.36 76.252 26.816 76.252 25.056C76.252 23.76 76.428 22.576 76.78 21.504C77.132 20.416 77.644 19.48 78.316 18.696C79.004 17.912 79.844 17.304 80.836 16.872C81.844 16.44 82.996 16.224 84.292 16.224C85.14 16.224 85.988 16.336 86.836 16.56C87.7 16.768 88.524 17.056 89.308 17.424L88.132 20.376C87.492 20.072 86.844 19.808 86.188 19.584C85.548 19.36 84.916 19.248 84.292 19.248Z" fill="white"/>
<path d="M105.808 19.248C105.12 19.248 104.504 19.384 103.96 19.656C103.432 19.928 102.984 20.32 102.616 20.832C102.248 21.328 101.968 21.936 101.776 22.656C101.6 23.376 101.512 24.184 101.512 25.08C101.512 26.296 101.656 27.336 101.944 28.2C102.248 29.048 102.72 29.696 103.36 30.144C104 30.592 104.816 30.816 105.808 30.816C106.512 30.816 107.208 30.736 107.896 30.576C108.6 30.416 109.36 30.192 110.176 29.904V32.952C109.424 33.256 108.68 33.48 107.944 33.624C107.208 33.768 106.384 33.84 105.472 33.84C103.712 33.84 102.256 33.48 101.104 32.76C99.9676 32.024 99.1276 31 98.5836 29.688C98.0396 28.36 97.7676 26.816 97.7676 25.056C97.7676 23.76 97.9436 22.576 98.2956 21.504C98.6476 20.416 99.1596 19.48 99.8316 18.696C100.52 17.912 101.36 17.304 102.352 16.872C103.36 16.44 104.512 16.224 105.808 16.224C106.656 16.224 107.504 16.336 108.352 16.56C109.216 16.768 110.04 17.056 110.824 17.424L109.648 20.376C109.008 20.072 108.36 19.808 107.704 19.584C107.064 19.36 106.432 19.248 105.808 19.248Z" fill="white"/>
<path d="M125.433 27.024C125.433 28.112 125.281 29.08 124.977 29.928C124.689 30.776 124.265 31.496 123.705 32.088C123.161 32.664 122.497 33.104 121.713 33.408C120.929 33.696 120.041 33.84 119.049 33.84C118.137 33.84 117.289 33.696 116.505 33.408C115.737 33.104 115.073 32.664 114.513 32.088C113.953 31.496 113.513 30.776 113.193 29.928C112.889 29.08 112.737 28.112 112.737 27.024C112.737 25.568 112.993 24.344 113.505 23.352C114.017 22.344 114.753 21.576 115.713 21.048C116.673 20.52 117.809 20.256 119.121 20.256C120.353 20.256 121.441 20.52 122.385 21.048C123.329 21.576 124.073 22.344 124.617 23.352C125.161 24.344 125.433 25.568 125.433 27.024ZM116.385 27.024C116.385 27.888 116.473 28.616 116.649 29.208C116.841 29.784 117.137 30.224 117.537 30.528C117.937 30.816 118.457 30.96 119.097 30.96C119.737 30.96 120.249 30.816 120.633 30.528C121.033 30.224 121.321 29.784 121.497 29.208C121.689 28.616 121.785 27.888 121.785 27.024C121.785 26.16 121.689 25.44 121.497 24.864C121.321 24.288 121.033 23.856 120.633 23.568C120.233 23.28 119.713 23.136 119.073 23.136C118.129 23.136 117.441 23.464 117.009 24.12C116.593 24.76 116.385 25.728 116.385 27.024Z" fill="white"/>
<path d="M140.292 27.024C140.292 28.112 140.14 29.08 139.836 29.928C139.548 30.776 139.124 31.496 138.564 32.088C138.02 32.664 137.356 33.104 136.572 33.408C135.788 33.696 134.9 33.84 133.908 33.84C132.996 33.84 132.148 33.696 131.364 33.408C130.596 33.104 129.932 32.664 129.372 32.088C128.812 31.496 128.372 30.776 128.052 29.928C127.748 29.08 127.596 28.112 127.596 27.024C127.596 25.568 127.852 24.344 128.364 23.352C128.876 22.344 129.612 21.576 130.572 21.048C131.532 20.52 132.668 20.256 133.98 20.256C135.212 20.256 136.3 20.52 137.244 21.048C138.188 21.576 138.932 22.344 139.476 23.352C140.02 24.344 140.292 25.568 140.292 27.024ZM131.244 27.024C131.244 27.888 131.332 28.616 131.508 29.208C131.7 29.784 131.996 30.224 132.396 30.528C132.796 30.816 133.316 30.96 133.956 30.96C134.596 30.96 135.108 30.816 135.492 30.528C135.892 30.224 136.18 29.784 136.356 29.208C136.548 28.616 136.644 27.888 136.644 27.024C136.644 26.16 136.548 25.44 136.356 24.864C136.18 24.288 135.892 23.856 135.492 23.568C135.092 23.28 134.572 23.136 133.932 23.136C132.988 23.136 132.3 23.464 131.868 24.12C131.452 24.76 131.244 25.728 131.244 27.024Z" fill="white"/>
<path d="M150.544 20.256C152.016 20.256 153.208 20.832 154.12 21.984C155.032 23.12 155.488 24.8 155.488 27.024C155.488 28.512 155.272 29.768 154.84 30.792C154.408 31.8 153.816 32.56 153.064 33.072C152.312 33.584 151.44 33.84 150.448 33.84C149.824 33.84 149.28 33.76 148.816 33.6C148.368 33.44 147.984 33.232 147.664 32.976C147.344 32.72 147.064 32.448 146.824 32.16H146.632C146.696 32.464 146.744 32.784 146.776 33.12C146.808 33.44 146.824 33.76 146.824 34.08V39.36H143.248V20.496H146.152L146.656 22.2H146.824C147.064 21.848 147.352 21.528 147.688 21.24C148.024 20.936 148.424 20.696 148.888 20.52C149.368 20.344 149.92 20.256 150.544 20.256ZM149.392 23.112C148.768 23.112 148.272 23.24 147.904 23.496C147.536 23.752 147.264 24.144 147.088 24.672C146.928 25.184 146.84 25.832 146.824 26.616V27C146.824 27.848 146.904 28.568 147.064 29.16C147.224 29.736 147.496 30.176 147.88 30.48C148.264 30.784 148.784 30.936 149.44 30.936C149.984 30.936 150.432 30.784 150.784 30.48C151.136 30.176 151.4 29.728 151.576 29.136C151.752 28.544 151.84 27.824 151.84 26.976C151.84 25.696 151.64 24.736 151.24 24.096C150.856 23.44 150.24 23.112 149.392 23.112Z" fill="white"/>
<path d="M163.835 20.256C165.051 20.256 166.091 20.488 166.955 20.952C167.835 21.416 168.515 22.088 168.995 22.968C169.475 23.848 169.715 24.928 169.715 26.208V27.936H161.267C161.299 28.944 161.595 29.736 162.155 30.312C162.731 30.888 163.523 31.176 164.531 31.176C165.379 31.176 166.147 31.096 166.835 30.936C167.523 30.76 168.235 30.496 168.971 30.144V32.904C168.331 33.224 167.651 33.456 166.931 33.6C166.227 33.76 165.371 33.84 164.363 33.84C163.051 33.84 161.891 33.6 160.883 33.12C159.875 32.624 159.083 31.88 158.507 30.888C157.931 29.896 157.643 28.648 157.643 27.144C157.643 25.608 157.899 24.336 158.411 23.328C158.939 22.304 159.667 21.536 160.595 21.024C161.523 20.512 162.603 20.256 163.835 20.256ZM163.859 22.8C163.171 22.8 162.595 23.024 162.131 23.472C161.683 23.92 161.419 24.616 161.339 25.56H166.355C166.355 25.032 166.259 24.56 166.067 24.144C165.891 23.728 165.619 23.4 165.251 23.16C164.883 22.92 164.419 22.8 163.859 22.8Z" fill="white"/>
<path d="M179.935 20.256C180.111 20.256 180.319 20.264 180.559 20.28C180.799 20.296 180.991 20.32 181.135 20.352L180.871 23.712C180.759 23.68 180.591 23.656 180.367 23.64C180.159 23.608 179.975 23.592 179.815 23.592C179.351 23.592 178.903 23.656 178.471 23.784C178.039 23.896 177.647 24.08 177.295 24.336C176.959 24.592 176.687 24.936 176.479 25.368C176.287 25.784 176.191 26.304 176.191 26.928V33.6H172.615V20.496H175.327L175.855 22.704H176.023C176.279 22.256 176.599 21.848 176.983 21.48C177.367 21.112 177.807 20.816 178.303 20.592C178.815 20.368 179.359 20.256 179.935 20.256Z" fill="white"/>
<path d="M188.421 20.232C190.181 20.232 191.525 20.616 192.453 21.384C193.397 22.136 193.869 23.296 193.869 24.864V33.6H191.373L190.677 31.824H190.581C190.213 32.288 189.829 32.672 189.429 32.976C189.045 33.28 188.597 33.496 188.085 33.624C187.589 33.768 186.973 33.84 186.237 33.84C185.469 33.84 184.773 33.696 184.149 33.408C183.541 33.104 183.061 32.648 182.709 32.04C182.357 31.416 182.181 30.632 182.181 29.688C182.181 28.296 182.669 27.272 183.645 26.616C184.621 25.944 186.085 25.576 188.037 25.512L190.317 25.44V24.864C190.317 24.176 190.133 23.672 189.765 23.352C189.413 23.032 188.917 22.872 188.277 22.872C187.637 22.872 187.013 22.968 186.405 23.16C185.797 23.336 185.189 23.56 184.581 23.832L183.405 21.408C184.109 21.04 184.885 20.752 185.733 20.544C186.597 20.336 187.493 20.232 188.421 20.232ZM188.925 27.576C187.773 27.608 186.973 27.816 186.525 28.2C186.077 28.584 185.853 29.088 185.853 29.712C185.853 30.256 186.013 30.648 186.333 30.888C186.653 31.112 187.069 31.224 187.581 31.224C188.349 31.224 188.997 31 189.525 30.552C190.053 30.088 190.317 29.44 190.317 28.608V27.528L188.925 27.576Z" fill="white"/>
<path d="M203.049 30.984C203.449 30.984 203.833 30.944 204.201 30.864C204.569 30.784 204.937 30.688 205.305 30.576V33.24C204.921 33.4 204.441 33.536 203.865 33.648C203.305 33.776 202.689 33.84 202.017 33.84C201.233 33.84 200.529 33.712 199.905 33.456C199.297 33.2 198.809 32.76 198.441 32.136C198.089 31.496 197.913 30.616 197.913 29.496V23.184H196.209V21.672L198.177 20.472L199.209 17.712H201.489V20.496H205.161V23.184H201.489V29.496C201.489 29.992 201.633 30.368 201.921 30.624C202.209 30.864 202.585 30.984 203.049 30.984Z" fill="white"/>
<path d="M211.511 20.496V33.6H207.935V20.496H211.511ZM209.735 15.36C210.263 15.36 210.719 15.488 211.103 15.744C211.487 15.984 211.679 16.44 211.679 17.112C211.679 17.768 211.487 18.224 211.103 18.48C210.719 18.736 210.263 18.864 209.735 18.864C209.191 18.864 208.727 18.736 208.343 18.48C207.975 18.224 207.791 17.768 207.791 17.112C207.791 16.44 207.975 15.984 208.343 15.744C208.727 15.488 209.191 15.36 209.735 15.36Z" fill="white"/>
<path d="M218.368 33.6L213.376 20.496H217.12L219.64 27.96C219.736 28.248 219.816 28.552 219.88 28.872C219.96 29.192 220.016 29.504 220.048 29.808C220.096 30.112 220.128 30.392 220.144 30.648H220.24C220.256 30.376 220.288 30.088 220.336 29.784C220.384 29.48 220.44 29.176 220.504 28.872C220.584 28.552 220.672 28.248 220.768 27.96L223.288 20.496H227.032L222.04 33.6H218.368Z" fill="white"/>
<path d="M234.312 20.256C235.528 20.256 236.568 20.488 237.432 20.952C238.312 21.416 238.992 22.088 239.472 22.968C239.952 23.848 240.192 24.928 240.192 26.208V27.936H231.744C231.776 28.944 232.072 29.736 232.632 30.312C233.208 30.888 234 31.176 235.008 31.176C235.856 31.176 236.624 31.096 237.312 30.936C238 30.76 238.712 30.496 239.448 30.144V32.904C238.808 33.224 238.128 33.456 237.408 33.6C236.704 33.76 235.848 33.84 234.84 33.84C233.528 33.84 232.368 33.6 231.36 33.12C230.352 32.624 229.56 31.88 228.984 30.888C228.408 29.896 228.12 28.648 228.12 27.144C228.12 25.608 228.376 24.336 228.888 23.328C229.416 22.304 230.144 21.536 231.072 21.024C232 20.512 233.08 20.256 234.312 20.256ZM234.336 22.8C233.648 22.8 233.072 23.024 232.608 23.472C232.16 23.92 231.896 24.616 231.816 25.56H236.832C236.832 25.032 236.736 24.56 236.544 24.144C236.368 23.728 236.096 23.4 235.728 23.16C235.36 22.92 234.896 22.8 234.336 22.8Z" fill="white"/>
<defs>
<linearGradient id="paint0_linear_149_806" x1="16.8" y1="37.2" x2="16.8" y2="48" gradientUnits="userSpaceOnUse">
<stop stop-color="#1B1B1B" stop-opacity="0.5"/>
<stop offset="1" stop-color="#53EB45"/>
</linearGradient>
<linearGradient id="paint1_linear_149_806" x1="16.549" y1="43.2" x2="16.941" y2="-7.05887" gradientUnits="userSpaceOnUse">
<stop stop-color="#53EB45"/>
<stop offset="1" stop-color="#133706"/>
</linearGradient>
<linearGradient id="paint2_linear_149_806" x1="16.549" y1="43.2" x2="16.941" y2="-7.05887" gradientUnits="userSpaceOnUse">
<stop stop-color="#53EB45"/>
<stop offset="1" stop-color="#133706"/>
</linearGradient>
</defs>
</svg>
