<svg width="34" height="34" viewBox="0 0 34 34" fill="none" xmlns="http://www.w3.org/2000/svg">
<path d="M17.0002 0.333496C7.80016 0.333496 0.333496 7.80016 0.333496 17.0002C0.333496 26.2002 7.80016 33.6668 17.0002 33.6668C26.2002 33.6668 33.6668 26.2002 33.6668 17.0002C33.6668 7.80016 26.2002 0.333496 17.0002 0.333496ZM24.7335 11.6668C24.4835 14.3002 23.4002 20.7002 22.8502 23.6502C22.6168 24.9002 22.1502 25.3168 21.7168 25.3668C20.7502 25.4502 20.0168 24.7335 19.0835 24.1168C17.6168 23.1502 16.7835 22.5502 15.3668 21.6168C13.7168 20.5335 14.7835 19.9335 15.7335 18.9668C15.9835 18.7168 20.2502 14.8335 20.3335 14.4835C20.3451 14.4305 20.3435 14.3754 20.329 14.3232C20.3145 14.2709 20.2874 14.2229 20.2502 14.1835C20.1502 14.1002 20.0168 14.1335 19.9002 14.1502C19.7502 14.1835 17.4168 15.7335 12.8668 18.8002C12.2002 19.2502 11.6002 19.4835 11.0668 19.4668C10.4668 19.4502 9.3335 19.1335 8.4835 18.8502C7.4335 18.5168 6.61683 18.3335 6.6835 17.7502C6.71683 17.4502 7.1335 17.1502 7.91683 16.8335C12.7835 14.7168 16.0168 13.3168 17.6335 12.6502C22.2668 10.7168 23.2168 10.3835 23.8502 10.3835C23.9835 10.3835 24.3002 10.4168 24.5002 10.5835C24.6668 10.7168 24.7168 10.9002 24.7335 11.0335C24.7168 11.1335 24.7502 11.4335 24.7335 11.6668Z" fill="white"/>
</svg>
