<svg width="34" height="34" viewBox="0 0 34 34" fill="none" xmlns="http://www.w3.org/2000/svg">
<path d="M17.0002 0.333496C7.7953 0.333496 0.333496 7.7953 0.333496 17.0002C0.333496 26.205 7.7953 33.6668 17.0002 33.6668C26.205 33.6668 33.6668 26.205 33.6668 17.0002C33.6668 7.7953 26.205 0.333496 17.0002 0.333496ZM23.7797 13.9863C23.7866 14.1286 23.7884 14.271 23.7884 14.4099C23.7884 18.7502 20.488 23.7519 14.4498 23.7519C12.6656 23.7549 10.9185 23.2424 9.41856 22.2762C9.67377 22.3075 9.93593 22.3196 10.2016 22.3196C11.7397 22.3196 13.1547 21.797 14.2779 20.9151C13.5934 20.9016 12.9301 20.675 12.3806 20.2667C11.831 19.8584 11.4225 19.2888 11.212 18.6373C11.7036 18.7308 12.21 18.7112 12.6929 18.58C11.9499 18.4298 11.2818 18.0272 10.8017 17.4405C10.3217 16.8539 10.0594 16.1193 10.0592 15.3613V15.3213C10.5019 15.5661 11.0088 15.7154 11.547 15.7328C10.8505 15.2691 10.3574 14.5569 10.1686 13.7417C9.97986 12.9265 10.1096 12.07 10.5314 11.3474C11.356 12.3613 12.3843 13.1907 13.5498 13.782C14.7152 14.3732 15.9919 14.7131 17.297 14.7797C17.1311 14.0753 17.2025 13.3359 17.5002 12.6764C17.7978 12.0168 18.3051 11.4741 18.943 11.1326C19.5809 10.791 20.3138 10.6698 21.0278 10.7878C21.7417 10.9058 22.3966 11.2563 22.8908 11.7849C23.6255 11.6395 24.33 11.37 24.9741 10.988C24.7293 11.7487 24.2166 12.3946 23.5314 12.8057C24.1822 12.7273 24.8176 12.5524 25.4168 12.2866C24.9767 12.9462 24.4223 13.5218 23.7797 13.9863Z" fill="white"/>
</svg>
